<?xml version="1.0" encoding="UTF-8" standalone="no"?>
<svg
   width="155"
   height="41"
   viewBox="0 0 155 41"
   fill="none"
   version="1.1"
   id="svg10"
   sodipodi:docname="logo.png.svg"
   inkscape:version="1.2 (dc2aedaf03, 2022-05-15)"
   xmlns:inkscape="http://www.inkscape.org/namespaces/inkscape"
   xmlns:sodipodi="http://sodipodi.sourceforge.net/DTD/sodipodi-0.dtd"
   xmlns="http://www.w3.org/2000/svg"
   xmlns:svg="http://www.w3.org/2000/svg">
  <defs
     id="defs14" />
  <sodipodi:namedview
     id="namedview12"
     pagecolor="#505050"
     bordercolor="#eeeeee"
     borderopacity="1"
     inkscape:showpageshadow="0"
     inkscape:pageopacity="0"
     inkscape:pagecheckerboard="0"
     inkscape:deskcolor="#505050"
     showgrid="false"
     inkscape:zoom="3.6322581"
     inkscape:cx="50.519538"
     inkscape:cy="33.587922"
     inkscape:window-width="1366"
     inkscape:window-height="705"
     inkscape:window-x="-8"
     inkscape:window-y="-8"
     inkscape:window-maximized="1"
     inkscape:current-layer="svg10" />
  <path
     d="M0 0.728001V39.928H22.064V32.032H8.4V0.728001H0Z"
     fill="white"
     id="path2" />
  <path
     d="M64.0268 20.328C64.0268 9.016 54.9548 0 43.5308 0C32.1068 0 23.0348 9.016 23.0348 20.328C23.0348 31.64 32.1068 40.656 43.5308 40.656C54.9548 40.656 64.0268 31.64 64.0268 20.328ZM55.4028 20.328C55.4028 27.104 50.1948 32.48 43.5308 32.48C36.8668 32.48 31.6588 27.104 31.6588 20.328C31.6588 13.552 36.8668 8.176 43.5308 8.176C50.1948 8.176 55.4028 13.552 55.4028 20.328Z"
     fill="white"
     id="path4" />
  <path
     d="M107.11 10.136C103.918 3.808 97.3096 0 89.4136 0C78.1576 0 68.9176 9.128 68.9176 20.328C68.9176 31.528 77.9336 40.656 89.3576 40.656C100.558 40.656 108.734 32.256 108.734 21.28V18.144H88.3496V25.2H99.7176C98.6536 29.68 94.6216 32.76 89.4136 32.76C82.6936 32.76 77.4296 27.216 77.4296 20.328C77.4296 13.384 82.6936 7.952 89.3576 7.952C93.8936 7.952 97.5336 10.024 99.4936 13.832L107.11 10.136Z"
     fill="white"
     id="path6" />
  <path
     d="M154.261 20.328C154.261 9.016 145.189 0 133.765 0C122.341 0 113.269 9.016 113.269 20.328C113.269 31.64 122.341 40.656 133.765 40.656C145.189 40.656 154.261 31.64 154.261 20.328ZM145.637 20.328C145.637 27.104 140.429 32.48 133.765 32.48C127.101 32.48 121.893 27.104 121.893 20.328C121.893 13.552 127.101 8.176 133.765 8.176C140.429 8.176 145.637 13.552 145.637 20.328Z"
     fill="white"
     id="path8" />
  <path
     style="fill:#ffffff;stroke:#000000;stroke-width:1.92613;stroke-linejoin:round"
     d="M 1.8803923,20.510658 V 1.8803923 H 5.8211155 9.7618387 V 16.837084 31.793776 h 6.5678713 6.567873 v 3.673573 3.673574 H 12.388987 1.8803923 Z"
     id="path1120" />
  <path
     style="fill:#ffffff;stroke:#000000;stroke-width:1.9018;stroke-linejoin:round"
     d="M 39.510048,39.051703 C 35.534404,38.108267 33.003113,36.668539 30.113239,33.707061 27.698827,31.232826 26.52788,29.418694 25.601081,26.716429 23.398142,20.293332 24.631438,13.317746 28.89233,8.1009781 c 5.861397,-7.17632513 16.441881,-8.97594007 24.449187,-4.158517 6.039381,3.633463 9.545425,10.3349369 9.13575,17.4621219 -0.465559,8.099343 -5.652863,14.752756 -13.441686,17.240766 -2.31555,0.739664 -7.236368,0.949584 -9.525533,0.406354 z m 7.645815,-7.735149 c 2.912048,-0.994711 5.101898,-2.993836 6.42871,-5.868801 C 56.891449,18.282348 52.77678,10.104509 45.226327,8.8358705 40.377437,8.021152 35.569512,10.662737 33.383188,15.342763 c -0.790551,1.692247 -0.824204,1.897514 -0.824204,5.02735 0,3.126084 0.03446,3.33709 0.821091,5.02632 1.33792,2.873118 3.888097,5.124522 6.902313,6.093653 1.666359,0.535769 5.046823,0.450424 6.873475,-0.173532 z"
     id="path1122" />
  <path
     style="fill:#ffffff;stroke:#000000;stroke-width:1.8669;stroke-linejoin:round"
     d="M 85.172715,38.520015 C 79.130929,37.215148 74.507952,33.61214 71.917972,28.189677 66.144744,16.102663 75.225227,2.1582527 88.911569,2.0935243 c 5.532818,-0.026167 9.529186,1.4210819 13.142321,4.7593729 1.42356,1.3152783 3.30446,3.6574678 3.30446,4.1148808 0,0.06139 -1.51222,0.84479 -3.36049,1.740897 -3.221375,1.561832 -3.372365,1.608547 -3.647145,1.128385 C 97.093828,11.640726 93.91546,9.636809 90.97858,9.189032 83.956039,8.1183246 77.844176,13.314659 77.844176,20.355961 c 0,5.247089 3.089665,9.573441 7.931932,11.106808 2.118973,0.671003 5.850663,0.451733 7.882286,-0.463153 2.431946,-1.095162 4.354389,-3.200865 5.030601,-5.51015 l 0.20491,-0.699756 h -5.382032 -5.382027 v -3.148117 -3.148118 h 9.415459 9.415465 l -0.11092,3.337005 c -0.0963,2.897428 -0.21321,3.622902 -0.88743,5.507379 -2.53062,7.073201 -9.168921,11.594879 -16.932578,11.53363 -1.272852,-0.01005 -3.008559,-0.168203 -3.857127,-0.351474 z"
     id="path1124" />
  <path
     style="fill:#ffffff;stroke:#000000;stroke-width:1.89506;stroke-linejoin:round"
     d="m 129.71545,39.064142 c -3.78442,-0.843323 -6.93612,-2.530961 -9.61063,-5.146201 -8.36111,-8.175839 -7.23661,-21.662968 2.36512,-28.3671674 4.48384,-3.1307389 10.76994,-4.2715113 16.10924,-2.9234343 10.99298,2.7755273 17.10424,13.9014907 13.38303,24.3647157 -0.94042,2.644263 -2.12858,4.419458 -4.57848,6.840586 -2.4792,2.450076 -4.62456,3.762182 -7.7934,4.766456 -2.50756,0.794699 -7.3683,1.023611 -9.87488,0.465045 z m 8.85796,-7.996769 c 2.30176,-1.057404 4.2764,-2.985854 5.43854,-5.311322 0.86801,-1.736897 0.89009,-1.860253 0.89009,-4.974097 0,-3.062658 -0.0342,-3.263519 -0.83633,-4.919444 -2.80122,-5.782571 -9.5496,-8.1143767 -15.37196,-5.311556 -7.15642,3.445028 -8.49224,13.437522 -2.50361,18.728005 2.27684,2.011408 4.51669,2.758444 8.00142,2.66864 2.31079,-0.05955 2.81656,-0.161145 4.38185,-0.880226 z"
     id="path1126" />
</svg>
