<?xml version="1.0" encoding="UTF-8" standalone="no"?>
<!-- Uploaded to: SVG Repo, www.svgrepo.com, Generator: SVG Repo Mixer Tools -->

<svg
   version="1.1"
   id="_x32_"
   width="800px"
   height="800px"
   viewBox="0 0 512 512"
   xml:space="preserve"
   sodipodi:docname="to-receive-points-svgrepo-com.svg"
   inkscape:version="1.2 (dc2aedaf03, 2022-05-15)"
   xmlns:inkscape="http://www.inkscape.org/namespaces/inkscape"
   xmlns:sodipodi="http://sodipodi.sourceforge.net/DTD/sodipodi-0.dtd"
   xmlns="http://www.w3.org/2000/svg"
   xmlns:svg="http://www.w3.org/2000/svg"><defs
   id="defs17" /><sodipodi:namedview
   id="namedview15"
   pagecolor="#505050"
   bordercolor="#eeeeee"
   borderopacity="1"
   inkscape:showpageshadow="0"
   inkscape:pageopacity="0"
   inkscape:pagecheckerboard="0"
   inkscape:deskcolor="#505050"
   showgrid="false"
   inkscape:zoom="0.4665165"
   inkscape:cx="378.33603"
   inkscape:cy="400.84327"
   inkscape:window-width="1366"
   inkscape:window-height="705"
   inkscape:window-x="-8"
   inkscape:window-y="-8"
   inkscape:window-maximized="1"
   inkscape:current-layer="_x32_" />
<style
   type="text/css"
   id="style2">
<![CDATA[
	.st0{fill:#000000;}
]]>
</style>
<g
   id="g12">
	<path
   class="st0"
   d="M225.557,316.597c20.281,0,83.625,0,83.625,0c16.797,0,30.406-13.609,30.406-30.406   s-13.609-30.406-30.406-30.406c-15.203,0-45.609,0-121.625,0c-76.031,0-100.094,31.672-126.703,58.281l-48.281,42.172   c-3.125,2.719-4.938,6.672-4.938,10.813v140.157c0,1.875,1.094,3.578,2.797,4.359c1.703,0.766,3.703,0.5,5.125-0.719l93.313-80   c3.297-2.797,7.672-3.984,11.922-3.219l145.406,26.438c10.141,1.844,20.594-0.484,29.016-6.438   c0,0,185.609-129.047,199.297-140.454l0,0c13.063-11.984,12.906-29.375,0.922-42.438c-12-13.094-34.375-10.313-49.297,0.734   c-13.672,11.406-107.078,72.797-107.078,72.797h-113.5l-0.359,0.156c-5.984-0.188-10.656-5.203-10.469-11.172   c0.219-5.984,5.219-10.672,11.188-10.469L225.557,316.597z"
   id="path4" />
	<path
   class="st0"
   d="M362.697,0.003c-27.656,0-51.813,14.781-65.172,36.844c42.719,15.672,73.344,56.641,73.344,104.719   c0,3.547-0.203,7.047-0.531,10.516c38.516-3.844,68.594-36.328,68.594-75.859C438.932,34.128,404.807,0.003,362.697,0.003z"
   id="path6" />
	<path
   class="st0"
   d="M261.979,121.222h-12.016v24.203h12.016c7.609,0,13.797-5.438,13.797-12.109   C275.775,126.66,269.588,121.222,261.979,121.222z"
   id="path8" />
	<path
   class="st0"
   d="M259.244,54.441c-48.109,0-87.125,39.016-87.125,87.125c0,48.125,39.016,87.125,87.125,87.125   s87.125-39,87.125-87.125C346.369,93.457,307.354,54.441,259.244,54.441z M261.979,158.863h-12.016v17.609   c0,3.391-2.75,6.125-6.125,6.125h-3.078c-3.391,0-6.125-2.734-6.125-6.125V113.91c0-3.375,2.734-6.125,6.125-6.125h21.219   c16.078,0,29.141,11.453,29.141,25.531C291.119,147.41,278.057,158.863,261.979,158.863z"
   id="path10" />
</g>
<path
   style="fill:#008000;stroke:#000000;stroke-width:11.1788;stroke-linejoin:round"
   d="m 13.767899,795.52875 c -1.045892,-1.95427 -1.577423,-40.30201 -1.577423,-113.80461 0,-108.76953 0.05889,-110.97385 3.127238,-117.05257 2.228968,-4.41581 13.009428,-14.73053 37.531118,-35.90967 18.922133,-16.34285 46.595525,-41.48131 61.496428,-55.86322 14.90089,-14.38192 32.12618,-29.70261 38.2784,-34.04598 23.18884,-16.37095 50.25375,-27.46134 82.60316,-33.84832 16.43739,-3.24535 20.66697,-3.3655 136.33769,-3.87317 135.79019,-0.59598 128.14533,-1.23523 142.53795,11.91883 10.76965,9.84283 15.2101,19.80999 15.2311,34.18806 0.0259,17.73386 -9.42471,33.09602 -25.61781,41.64218 l -7.71575,4.0721 -74.66667,0.76191 c -80.53548,0.82179 -79.44522,0.70322 -83.79375,9.11235 -4.25886,8.23574 -2.48681,17.69422 4.35305,23.23471 2.99915,2.42941 10.43662,2.63541 96.2813,2.66667 l 93.03107,0.0339 70.01655,-46.86298 c 38.5091,-25.77464 76.65901,-51.79832 84.7776,-57.8304 17.03879,-12.65977 26.61595,-17.84265 38.86683,-21.0336 18.33759,-4.77633 33.74824,-1.73375 45.7154,9.02575 20.17368,18.13788 21.94775,46.50647 4.02464,64.35711 -10.60831,10.56541 -302.35398,216.07263 -321.35401,226.36348 -4.23907,2.29598 -12.46923,4.94936 -18.28924,5.89639 -10.40807,1.69363 -12.51468,1.36912 -128.29744,-19.76359 -64.74359,-11.81702 -120.05893,-21.48549 -122.92299,-21.48549 -2.86405,0 -6.43548,0.47127 -7.9365,1.04727 -1.50103,0.576 -36.58714,30.06171 -77.969142,65.52381 -53.452649,45.80597 -76.289899,64.47654 -78.86569,64.47654 -2.025058,0 -4.322069,-1.30121 -5.203109,-2.94744 z"
   id="path939"
   transform="scale(0.64)" /><path
   style="fill:#008000;stroke:#000000;stroke-width:11.1788;stroke-linejoin:round"
   d="M 377.90476,353.70898 C 324.2533,341.8748 283.58565,300.91806 272.59049,247.64608 c -10.70315,-51.85715 11.85694,-107.70474 55.69104,-137.86339 10.70182,-7.36305 30.82639,-16.462429 44.2899,-20.025806 17.3171,-4.583305 45.25569,-4.632415 63.69729,-0.111964 66.62059,16.3302 111.21405,79.70459 103.08543,146.50078 -6.87753,56.51531 -45.64925,101.29334 -100.46475,116.02815 -16.84618,4.52838 -44.2833,5.21903 -60.98464,1.53513 z m 9.97403,-70.97306 c 3.46917,-3.46916 3.74026,-4.8375 3.74026,-18.87904 V 248.7181 L 408,248.09346 c 18.09071,-0.68985 25.46185,-3.298 35.18115,-12.4482 8.38755,-7.89644 11.57914,-15.48256 11.63074,-27.64526 0.0379,-8.92313 -0.63482,-11.82353 -4.11534,-17.74416 -4.95506,-8.42896 -11.61204,-14.31693 -20.97082,-18.54833 -5.75479,-2.60193 -10.90233,-3.21098 -31.74404,-3.75594 -24.23115,-0.63358 -24.97118,-0.56049 -28.57143,2.82177 l -3.69597,3.47219 v 52.37507 52.37507 l 3.74025,3.74025 c 2.58236,2.58236 5.43424,3.74027 9.21213,3.74027 3.77788,0 6.62977,-1.15791 9.21212,-3.74027 z"
   id="path941"
   transform="scale(0.64)" /><path
   style="fill:#008000;stroke:#000000;stroke-width:11.1788;stroke-linejoin:round"
   d="m 580.07533,228.36646 c 0.46504,-4.50587 0.0483,-15.59692 -0.92604,-24.64681 C 572.52115,142.15789 536.51745,90.856818 481.10816,64.022482 l -14.89183,-7.212013 6.64177,-8.976663 c 46.45503,-62.786187 143.96086,-61.791182 189.46324,1.933392 15.14482,21.209829 22.30781,43.739243 22.20864,69.851852 -0.19029,50.10004 -30.60033,93.24826 -77.88076,110.50348 -6.62722,2.41864 -15.50773,4.85626 -19.73446,5.41696 l -7.68497,1.01944 z"
   id="path943"
   transform="scale(0.64)" /><path
   style="fill:#008000;stroke:#000000;stroke-width:11.1788;stroke-linejoin:round"
   d=""
   id="path949"
   transform="scale(0.64)" /><path
   style="fill:#008000;stroke:#000000;stroke-width:11.1788;stroke-linejoin:round"
   d=""
   id="path951"
   transform="scale(0.64)" /><path
   style="opacity:1;fill:#5aa02c;stroke:#000000;stroke-width:15.7252;stroke-linejoin:round;stroke-opacity:0"
   d="m 19.31539,771.14101 c -0.788235,-9.72635 -1.115975,-58.73647 -0.728311,-108.91139 0.593161,-76.77219 1.214311,-91.9663 3.920164,-95.89219 1.768426,-2.56579 19.208371,-18.90705 38.755433,-36.31392 19.547062,-17.40687 47.978174,-43.14393 63.180244,-57.19348 15.20207,-14.04954 33.23991,-29.16394 40.08409,-33.58755 16.27937,-10.52186 39.6662,-20.14212 63.10271,-25.95754 18.2986,-4.54052 22.73819,-4.68824 144.60724,-4.81179 l 125.72903,-0.12746 8.017,6.48435 c 10.90066,8.81673 15.97139,18.99993 15.96736,32.06605 -0.004,13.70066 -5.14202,23.85587 -16.36876,32.35412 l -8.8697,6.71404 -74.72863,1.14932 c -44.98765,0.6919 -77.03383,2.05846 -80.52074,3.43368 -13.09002,5.16263 -16.49525,25.71371 -6.17508,37.26736 l 6.25298,7.00035 95.53154,0.69306 95.53152,0.69306 62.73272,-42.29126 c 34.50299,-23.26019 73.69909,-49.96228 87.10243,-59.33797 37.95142,-26.54714 54.66144,-31.8893 73.5765,-23.52228 24.62402,10.89238 31.61537,40.84925 13.89745,59.54839 -6.9076,7.29015 -85.91458,64.16576 -200.80087,144.55269 -100.13305,70.06396 -120.09044,83.13233 -131.14765,85.87719 -11.55744,2.86905 -8.36804,3.30513 -111.07315,-15.1871 -146.10516,-26.30648 -144.76627,-26.10668 -152.61741,-22.77398 -3.89226,1.6522 -30.70944,23.17002 -59.59374,47.81738 -59.5197,50.78895 -91.964312,77.94113 -93.133234,77.94113 -0.43889,0 -1.442901,-7.95792 -2.231136,-17.68426 z"
   id="path3802"
   transform="scale(0.64)" /><path
   style="opacity:1;fill:#5aa02c;stroke:#000000;stroke-width:15.7252;stroke-linejoin:round;stroke-opacity:0"
   d="m 375.12071,346.35155 c -39.42216,-11.21114 -69.90869,-36.39053 -85.85084,-70.90577 -9.90501,-21.44464 -12.44718,-35.40002 -11.18542,-61.40285 2.66714,-54.96502 35.14431,-96.90514 89.53385,-115.621547 16.19049,-5.571434 52.14289,-6.695003 68.5935,-2.143656 42.1862,11.671543 78.3266,45.892323 91.0702,86.232943 6.40571,20.27768 7.29665,49.16282 2.14187,69.44162 -4.61561,18.15772 -16.36141,40.93885 -27.80761,53.93327 -12.4055,14.08347 -37.31079,30.83499 -54.99105,36.9875 -17.64059,6.13871 -55.64863,7.9877 -71.5045,3.47849 z m 17.68426,-60.30527 c 3.81741,-4.33799 4.82298,-8.07312 4.82298,-17.91463 v -12.43394 l 15.16989,-1.40989 c 16.41694,-1.5258 25.35199,-5.09362 34.85895,-13.91939 9.60608,-8.9178 12.88328,-17.10284 13.05222,-32.59894 0.13015,-11.93985 -0.74792,-15.45017 -5.75948,-23.02483 -11.77648,-17.79941 -28.49073,-23.83655 -66.26719,-23.93554 -14.62408,-0.0383 -17.18326,0.57556 -23.07829,5.5359 l -6.63026,5.579 0.57105,55.9639 0.57104,55.9639 7.50242,5.06229 c 9.15236,6.17561 18.12783,5.15363 25.18667,-2.86783 z"
   id="path3804"
   transform="scale(0.64)" /><path
   style="opacity:1;fill:#71c837;stroke:#000000;stroke-width:15.7252;stroke-linejoin:round;stroke-opacity:0"
   d="m 586.26008,216.77638 c 0,-43.48185 -20.18292,-90.6481 -52.80863,-123.410494 -12.66015,-12.713199 -37.20712,-30.157328 -49.74416,-35.350338 -3.72245,-1.541892 -6.7681,-3.462285 -6.7681,-4.267541 0,-3.809901 25.45124,-26.282479 36.33755,-32.084826 24.18038,-12.8880051 56.14017,-16.6831536 82.55436,-9.803131 54.60294,14.222259 90.8843,71.712352 80.02922,126.8113 -4.82626,24.49743 -12.96117,39.83293 -30.60597,57.69674 -15.58574,15.77919 -28.4219,23.68984 -47.74064,29.42153 l -11.25363,3.33883 z"
   id="path3806"
   transform="scale(0.64)" /><path
   style="opacity:1;fill:#71c837;stroke:#000000;stroke-width:15.7252;stroke-linejoin:round;stroke-opacity:0"
   d="m 21.66701,783.29683 c -1.694663,-4.41623 -1.657777,-198.89504 0.03967,-209.15973 1.156629,-6.99429 7.866419,-13.78592 62.47265,-63.23463 33.64727,-30.46931 66.46861,-59.51415 72.93631,-64.54409 21.63484,-16.82544 58.89977,-31.42996 89.04067,-34.89599 9.62498,-1.10681 70.09182,-2.01971 134.37077,-2.02866 l 116.87079,-0.0163 8.03553,6.62356 c 10.78052,8.88622 14.68296,17.16627 14.68296,31.15384 0,13.57179 -4.21913,22.10175 -15.40246,31.13983 l -7.59384,6.13712 -77.35413,1.94914 c -56.21668,1.41652 -78.55442,2.69873 -81.74671,4.69234 -10.01358,6.25359 -12.06453,24.56147 -4.07973,36.41815 l 4.90501,7.28352 96.37758,1.33686 96.37756,1.33686 8.57419,-5.39154 c 4.7158,-2.96535 43.97257,-29.40012 87.23727,-58.74394 43.26471,-29.34382 84.10419,-55.84341 90.75442,-58.88799 23.54686,-10.78011 47.48983,-3.53968 56.91292,17.21066 5.06287,11.14875 5.04572,17.25215 -0.0802,28.5429 -3.30289,7.27524 -9.59409,13.07949 -32.79533,30.25687 C 680.51969,536.14368 493.7481,667.1337 460.45155,688.07853 l -18.74211,11.78951 -18.28955,-0.27553 C 410.95857,699.40481 376.7831,694.16671 316.17317,683.15477 187.38582,659.75598 181.29213,658.90991 172.88093,663.2595 166.35372,666.63486 133.21834,693.6458 72.837656,744.81176 22.129854,787.781 23.106016,787.04683 21.66701,783.29683 Z"
   id="path4620"
   transform="scale(0.64)" /><path
   style="opacity:1;fill:#71c837;stroke:#000000;stroke-width:15.7252;stroke-linejoin:round;stroke-opacity:0"
   d="m 369.70123,343.23125 c -35.65064,-11.41049 -62.00825,-34.2611 -78.53363,-68.08435 -10.25573,-20.99088 -10.33206,-21.30653 -11.07185,-45.78738 -1.28294,-42.4543 9.54469,-72.24623 35.62561,-98.02296 33.45447,-33.064288 88.83229,-46.035142 130.1364,-30.48117 39.58497,14.9066 71.82348,49.63799 81.7011,88.01875 4.67859,18.17923 4.61006,48.7251 -0.14619,65.18979 -4.69848,16.26449 -16.46253,38.80361 -26.17614,50.1518 -15.36942,17.95569 -46.87717,36.76477 -68.18395,40.70356 -19.16084,3.54206 -49.53951,2.73262 -63.35126,-1.68804 z m 21.33162,-55.11474 c 5.98418,-5.03535 6.5951,-6.71415 6.5951,-18.12302 v -12.5736 l 8.03831,-1.22986 c 30.26861,-4.6311 41.31965,-9.83308 49.70188,-23.39582 5.23937,-8.47748 7.80499,-25.09727 5.64867,-36.59144 -1.90741,-10.16741 -14.61228,-24.19379 -26.94856,-29.75166 -7.45267,-3.35765 -15.58216,-4.55575 -35.75306,-5.26917 -24.22083,-0.85667 -26.58267,-0.58475 -32.68909,3.76341 l -6.58199,4.68678 v 57.51931 57.5193 l 6.96653,4.46148 c 9.34547,5.985 17.07524,5.67123 25.02221,-1.01571 z"
   id="path4622"
   transform="scale(0.64)" /><path
   style="opacity:1;fill:#8dd35f;stroke:#000000;stroke-width:15.7252;stroke-linejoin:round;stroke-opacity:0"
   d="m 586.26008,210.47131 c 0,-38.39621 -18.41331,-81.43475 -48.95335,-114.421645 -11.05234,-11.937846 -44.35117,-36.203277 -53.79326,-39.200085 -2.4369,-0.773441 -4.43073,-2.220397 -4.43073,-3.215455 0,-3.86581 28.59701,-27.754038 39.19452,-32.74076 64.4138,-30.3102792 136.81605,3.665196 154.77959,72.631853 11.31692,43.448612 -7.95138,91.507612 -47.10881,117.498842 -10.18199,6.75842 -32.25107,16.19191 -37.87998,16.19191 -0.99439,0 -1.80798,-7.53509 -1.80798,-16.74466 z"
   id="path4624"
   transform="scale(0.64)" /><path
   style="opacity:1;fill:#8dd35f;stroke:#000000;stroke-width:15.7252;stroke-linejoin:round;stroke-opacity:0"
   d="m 21.997602,734.29099 c -0.626699,-27.54985 -0.621536,-75.49857 0.01147,-106.55272 l 1.150925,-56.46208 13.07079,-13.67817 c 13.606977,-14.23927 81.917023,-76.55313 111.673953,-101.87133 24.96383,-21.24008 56.7137,-36.03613 89.97165,-41.92855 7.29042,-1.29166 65.65337,-2.87426 135.53493,-3.67523 l 122.73096,-1.40672 10.55361,10.55362 c 8.50902,8.509 10.83769,12.44781 12.01981,20.33085 2.19323,14.62546 -1.68832,25.7599 -12.43257,35.66362 l -9.21569,8.49471 -63.11691,1.45528 c -83.6068,1.92771 -93.72878,2.84999 -99.98948,9.1107 -6.29073,6.29072 -6.73609,22.17384 -0.92592,33.02102 l 4.00067,7.46897 52.26743,1.31286 c 28.74709,0.72208 72.85402,1.44552 98.01542,1.60766 l 45.74799,0.2948 67.86,-45.71021 c 95.12343,-64.07474 115.65908,-76.96051 127.61604,-80.0769 31.57439,-8.22936 58.14798,20.12289 44.94275,47.95086 -2.22826,4.69574 -10.80893,13.09403 -23.04313,22.55337 -37.01867,28.62242 -221.16905,158.4929 -279.19624,196.90079 -27.90013,18.46693 -29.36194,19.14761 -41.09184,19.13407 -15.697,-0.0171 -52.94696,-5.63191 -133.77805,-20.1612 -83.46588,-15.00288 -113.16311,-19.40379 -119.66463,-17.7335 -6.03415,1.55026 -33.79346,23.60453 -97.400302,77.38282 -24.757967,20.93236 -47.525417,39.87061 -50.594333,42.08503 l -5.579848,4.02622 z"
   id="path5441"
   transform="scale(0.64)" /><path
   style="opacity:1;fill:#8dd35f;stroke:#000000;stroke-width:15.7252;stroke-linejoin:round;stroke-opacity:0"
   d="m 385.71411,344.98919 c -39.91019,-3.98746 -79.535,-35.93015 -97.3846,-78.50447 -5.97895,-14.26079 -6.45309,-17.30926 -6.45309,-41.48976 0,-42.67978 8.96457,-66.7545 34.29675,-92.10528 24.16765,-24.18539 56.9675,-37.177799 93.24429,-36.935158 30.19502,0.201963 55.25023,10.805548 80.27305,33.972268 16.47414,15.25214 28.98399,34.33752 34.96689,53.34647 3.78042,12.01119 4.69331,19.92296 4.57561,39.65562 -0.12818,21.47372 -0.89544,26.58176 -5.95389,39.6331 -11.8148,30.48335 -26.39345,48.65956 -51.52476,64.23945 -26.29102,16.29883 -51.5355,21.63519 -86.04025,18.18776 z m 3.39859,-54.95022 c 7.75657,-5.30813 8.44631,-6.95163 8.48243,-20.21179 l 0.0328,-12.04924 10.46391,-1.38809 c 37.22042,-4.93746 53.68508,-19.96752 53.79543,-49.10813 0.0571,-15.09306 -3.25012,-21.95772 -15.97544,-33.15899 -12.19578,-10.73515 -22.31988,-13.35671 -51.5818,-13.35671 -17.72501,0 -24.22809,0.82294 -29.06045,3.67749 l -6.22549,3.67748 v 59.06067 59.06066 l 5.89475,3.65477 c 7.56549,4.69062 17.44223,4.74859 24.17384,0.14188 z"
   id="path5443"
   transform="scale(0.64)" /><path
   style="opacity:1;fill:#8dd35f;stroke:#000000;stroke-width:15.7252;stroke-linejoin:round;stroke-opacity:0.16595745"
   d="m 587.49912,212.74703 c -2.64559,-26.88217 -5.88709,-42.52234 -11.95227,-57.66941 -14.05648,-35.1044 -40.4269,-66.602806 -74.23913,-88.675664 -8.69003,-5.672909 -16.81856,-10.653884 -18.06341,-11.068837 -3.94327,-1.31442 0.023,-6.803875 12.1019,-16.749274 16.96816,-13.97112 29.98045,-20.883933 46.29588,-24.594798 35.37128,-8.0450278 70.15896,0.652903 96.21469,24.056467 49.01859,44.029084 48.88168,117.716256 -0.30134,162.181646 -10.88236,9.83854 -38.45034,24.84527 -45.64176,24.84527 -2.32789,0 -3.53258,-3.36348 -4.41456,-12.3254 z"
   id="path5445"
   transform="scale(0.64)" /><path
   style="opacity:1;fill:#8dd35f;stroke:#000000;stroke-width:15.7252;stroke-linejoin:round;stroke-opacity:0.165957"
   d="M 23.552127,762.40406 C 22.713504,751.21839 22.381963,703.90293 22.815368,657.25858 l 0.78801,-84.80793 11.777327,-12.04911 c 13.481456,-13.79257 74.093755,-69.84314 99.862755,-92.347 32.10134,-28.03386 56.10194,-41.49826 89.82897,-50.39433 13.20457,-3.48292 30.27057,-4.23987 142.2417,-6.30902 l 127.23687,-2.35124 8.51914,8.24706 c 11.21135,10.85327 14.59644,17.73702 14.59644,29.68252 0,11.66732 -3.40264,18.87736 -13.47753,28.55825 l -7.41268,7.12278 -69.40201,1.9534 c -79.97383,2.25096 -86.59293,2.94062 -93.38199,9.72968 -6.07419,6.0742 -6.80958,22.55984 -1.50276,33.68837 l 3.45517,7.24556 38.68763,1.40136 c 21.2782,0.77074 65.97838,1.40135 99.33377,1.40135 h 60.64613 L 615.83179,483.663 c 44.67071,-29.90201 87.40439,-57.82609 94.96372,-62.05351 24.30328,-13.59117 42.34017,-12.68253 56.36332,2.8394 6.8158,7.54428 7.73244,9.89448 7.72537,19.80739 -0.004,7.18735 -1.44956,13.61137 -4.00147,17.79611 -6.19063,10.15169 -60.23388,50.03414 -206.05812,152.06529 -77.02167,53.89098 -116.62944,79.84055 -125.67615,82.33846 -9.44651,2.60832 -37.91553,-0.66272 -101.53982,-11.66668 C 174.12552,656.51466 179.81631,657.14579 166.96808,665.86484 155.51976,673.63386 53.314809,757.591 29.686823,778.6357 l -4.609927,4.10593 z"
   id="path10129"
   transform="scale(0.64)" /><path
   style="opacity:1;fill:#8dd35f;stroke:#000000;stroke-width:15.7252;stroke-linejoin:round;stroke-opacity:0.165957"
   d="m 374.63231,342.03108 c -36.45206,-8.83279 -70.83439,-40.00149 -86.50326,-78.41802 -4.09952,-10.0511 -4.77881,-15.61564 -4.70691,-38.55755 0.12752,-40.68442 6.87431,-61.58088 27.49228,-85.15031 27.2001,-31.0938 73.38554,-47.952521 114.04953,-41.630631 25.30704,3.934401 44.84791,14.447001 65.81043,35.404711 27.39722,27.39094 37.6566,51.45466 37.55753,88.0923 -0.0649,24.01682 -2.25285,33.74671 -12.25425,54.4963 -24.23632,50.28233 -86.28241,79.12986 -141.44535,65.7632 z m 17.24741,-52.72893 c 4.72316,-3.71524 5.6422,-6.32331 6.18383,-17.54862 l 0.63618,-13.18484 15.07,-2.53137 c 8.2885,-1.39225 18.99038,-4.5314 23.78197,-6.97588 11.43042,-5.83137 21.67354,-17.72265 23.45749,-27.2319 2.49489,-13.29889 0.0811,-31.94097 -4.96663,-38.35812 -7.39999,-9.40756 -19.75236,-18.23196 -29.01083,-20.725 -12.131,-3.26654 -59.89002,-1.75985 -64.45054,2.03327 -3.13182,2.60484 -3.53708,9.77457 -3.53708,62.5772 0,59.19547 0.0351,59.65991 4.76405,62.97217 6.85345,4.80035 21.33698,4.27051 28.07156,-1.02691 z"
   id="path10131"
   transform="scale(0.64)" /></svg>
